<svg class="icon" role="img" viewBox="0 0 24 24" xmlns="http://www.w3.org/2000/svg"><title>YouTube icon</title><path fill="#004e74" d="M11.83,3.83c1.07,.01,1.94,.02,2.81,.04,.65,.01,1.31,.03,1.96,.06,.53,.02,1.06,.04,1.59,.07,.51,.03,1.01,.07,1.52,.11,.4,.03,.8,.07,1.19,.16,1.01,.24,1.74,.81,2.15,1.77,.12,.27,.17,.56,.23,.84,.12,.62,.21,1.25,.27,1.88,.12,1.2,.15,2.4,.14,3.6,0,.55-.02,1.1-.06,1.64-.04,.58-.09,1.16-.15,1.74-.06,.6-.15,1.19-.28,1.78-.15,.64-.48,1.17-.99,1.58-.39,.32-.84,.52-1.34,.62-.48,.09-.95,.15-1.44,.19-.68,.05-1.35,.1-2.03,.14-.56,.03-1.13,.05-1.69,.06-1.19,.04-2.39,.05-3.59,.04-1.19,0-2.38-.03-3.58-.05-.64-.01-1.28-.04-1.91-.07-.58-.03-1.16-.07-1.74-.11-.58-.04-1.16-.11-1.73-.2-1.13-.18-2.06-1.02-2.35-2.12-.09-.33-.14-.67-.2-1-.09-.53-.14-1.06-.18-1.59-.03-.4-.06-.81-.07-1.21-.02-.71-.04-1.42-.03-2.13,0-.59,.02-1.18,.05-1.77,.03-.61,.09-1.22,.15-1.82,.05-.51,.13-1.02,.23-1.52,.15-.71,.51-1.28,1.09-1.72,.38-.29,.81-.48,1.29-.55,.56-.09,1.13-.16,1.7-.21,.65-.05,1.3-.1,1.95-.13,.69-.03,1.37-.06,2.06-.07,1.07-.02,2.14-.03,3-.05Zm4,8.17c-.2-.14-6.03-3.47-6.1-3.49v6.99l6.1-3.5Z"/></svg>